# xmcd
#
# Track frame offsets:
#	150
#	12999
#	29966
#	44643
#	57956
#	70830
#	80950
#	93566
#	105629
#	123523
#	136629
#	148831
#	160005
#	171727
#	182646
#	195812
#
# Disc length: 2750 seconds
#
# Revision: 1
# Processed by: cddbd v1.5.2PL0 Copyright (c) Steve Scherf et al.
# Submitted via: audiograbber 1.83.01
#
DISCID=ea0abc10
DTITLE=Various Artist - Country Legends CD6 Ruby Tuesday
DYEAR=2005
DGENRE=Country
TTITLE0=Johnny Cash - Folsom Prison Blues
TTITLE1=Merle Haggard - Today I Started Loving You Again
TTITLE2=Jeannie C. Riley - Harper Valley Pta
TTITLE3=Boxcar Willie - San Antonio Rose
TTITLE4=Charley Pride - Crystal Chandeliers
TTITLE5=Patti Page - A Poor Man's Roses
TTITLE6=Keny Rogers - Elvira
TTITLE7=Roger Miller - Little Green Apples
TTITLE8=Buck Owens - Country Girl (Leavin' Dirty Tracks)
TTITLE9=Don Williams - Ruby Tuesday
TTITLE10=Frankie Lane - High Noon (Do Not Forsake Me)
TTITLE11=Patsy Cline - Stop The World (And Let Me Off)
TTITLE12=Willie Nelson - I'll Stay Around
TTITLE13=Lynn Anderson - Someday Soon
TTITLE14=Hank Williams - Calling You
TTITLE15=Waylon Jennings - Burning Memories
EXTD=
EXTT0=
EXTT1=
EXTT2=
EXTT3=
EXTT4=
EXTT5=
EXTT6=
EXTT7=
EXTT8=
EXTT9=
EXTT10=
EXTT11=
EXTT12=
EXTT13=
EXTT14=
EXTT15=
PLAYORDER=
